<?xml version="1.0" encoding="utf-8"?>
<!-- Generator: Adobe Illustrator 26.0.3, SVG Export Plug-In . SVG Version: 6.00 Build 0)  -->
<svg version="1.1" id="Calque_1" xmlns="http://www.w3.org/2000/svg" xmlns:xlink="http://www.w3.org/1999/xlink" x="0px" y="0px"
	 viewBox="0 0 84.1 67.6" style="enable-background:new 0 0 84.1 67.6;" xml:space="preserve">
<style type="text/css">
	.st0{fill:#FAB412;}
</style>
<g id="Group_32" transform="translate(-1634 -1383)">
	<circle id="Ellipse_59" class="st0" cx="1634.8" cy="1383.8" r="0.8"/>
	<circle id="Ellipse_59-2" class="st0" cx="1643.1" cy="1383.8" r="0.8"/>
	<circle id="Ellipse_59-3" class="st0" cx="1651.3" cy="1383.8" r="0.8"/>
	<circle id="Ellipse_59-4" class="st0" cx="1659.6" cy="1383.8" r="0.8"/>
	<circle id="Ellipse_59-5" class="st0" cx="1667.8" cy="1383.8" r="0.8"/>
	<circle id="Ellipse_59-6" class="st0" cx="1676.1" cy="1383.8" r="0.8"/>
	<circle id="Ellipse_59-7" class="st0" cx="1684.3" cy="1383.8" r="0.8"/>
	<circle id="Ellipse_59-8" class="st0" cx="1692.6" cy="1383.8" r="0.8"/>
	<circle id="Ellipse_59-9" class="st0" cx="1700.8" cy="1383.8" r="0.8"/>
	<circle id="Ellipse_59-10" class="st0" cx="1709.1" cy="1383.8" r="0.8"/>
	<circle id="Ellipse_59-11" class="st0" cx="1717.3" cy="1383.8" r="0.8"/>
	<circle id="Ellipse_59-12" class="st0" cx="1634.8" cy="1392.1" r="0.8"/>
	<circle id="Ellipse_59-13" class="st0" cx="1643.1" cy="1392.1" r="0.8"/>
	<circle id="Ellipse_59-14" class="st0" cx="1651.3" cy="1392.1" r="0.8"/>
	<circle id="Ellipse_59-15" class="st0" cx="1659.6" cy="1392.1" r="0.8"/>
	<circle id="Ellipse_59-16" class="st0" cx="1667.8" cy="1392.1" r="0.8"/>
	<circle id="Ellipse_59-17" class="st0" cx="1676.1" cy="1392.1" r="0.8"/>
	<circle id="Ellipse_59-18" class="st0" cx="1684.3" cy="1392.1" r="0.8"/>
	<circle id="Ellipse_59-19" class="st0" cx="1692.6" cy="1392.1" r="0.8"/>
	<circle id="Ellipse_59-20" class="st0" cx="1700.8" cy="1392.1" r="0.8"/>
	<circle id="Ellipse_59-21" class="st0" cx="1709.1" cy="1392.1" r="0.8"/>
	<circle id="Ellipse_59-22" class="st0" cx="1717.3" cy="1392.1" r="0.8"/>
	<circle id="Ellipse_59-23" class="st0" cx="1634.8" cy="1400.3" r="0.8"/>
	<circle id="Ellipse_59-24" class="st0" cx="1643.1" cy="1400.3" r="0.8"/>
	<circle id="Ellipse_59-25" class="st0" cx="1651.3" cy="1400.3" r="0.8"/>
	<circle id="Ellipse_59-26" class="st0" cx="1659.6" cy="1400.3" r="0.8"/>
	<circle id="Ellipse_59-27" class="st0" cx="1667.8" cy="1400.3" r="0.8"/>
	<circle id="Ellipse_59-28" class="st0" cx="1676.1" cy="1400.3" r="0.8"/>
	<circle id="Ellipse_59-29" class="st0" cx="1684.3" cy="1400.3" r="0.8"/>
	<circle id="Ellipse_59-30" class="st0" cx="1692.6" cy="1400.3" r="0.8"/>
	<circle id="Ellipse_59-31" class="st0" cx="1700.8" cy="1400.3" r="0.8"/>
	<circle id="Ellipse_59-32" class="st0" cx="1709.1" cy="1400.3" r="0.8"/>
	<circle id="Ellipse_59-33" class="st0" cx="1717.3" cy="1400.3" r="0.8"/>
	<circle id="Ellipse_59-34" class="st0" cx="1634.8" cy="1408.6" r="0.8"/>
	<circle id="Ellipse_59-35" class="st0" cx="1643.1" cy="1408.6" r="0.8"/>
	<circle id="Ellipse_59-36" class="st0" cx="1651.3" cy="1408.6" r="0.8"/>
	<circle id="Ellipse_59-37" class="st0" cx="1659.6" cy="1408.6" r="0.8"/>
	<circle id="Ellipse_59-38" class="st0" cx="1667.8" cy="1408.6" r="0.8"/>
	<circle id="Ellipse_59-39" class="st0" cx="1676.1" cy="1408.6" r="0.8"/>
	<circle id="Ellipse_59-40" class="st0" cx="1684.3" cy="1408.6" r="0.8"/>
	<circle id="Ellipse_59-41" class="st0" cx="1692.6" cy="1408.6" r="0.8"/>
	<circle id="Ellipse_59-42" class="st0" cx="1700.8" cy="1408.6" r="0.8"/>
	<circle id="Ellipse_59-43" class="st0" cx="1709.1" cy="1408.6" r="0.8"/>
	<circle id="Ellipse_59-44" class="st0" cx="1717.3" cy="1408.6" r="0.8"/>
	<circle id="Ellipse_59-45" class="st0" cx="1634.8" cy="1416.8" r="0.8"/>
	<circle id="Ellipse_59-46" class="st0" cx="1643.1" cy="1416.8" r="0.8"/>
	<circle id="Ellipse_59-47" class="st0" cx="1651.3" cy="1416.8" r="0.8"/>
	<circle id="Ellipse_59-48" class="st0" cx="1659.6" cy="1416.8" r="0.8"/>
	<circle id="Ellipse_59-49" class="st0" cx="1667.8" cy="1416.8" r="0.8"/>
	<circle id="Ellipse_59-50" class="st0" cx="1676.1" cy="1416.8" r="0.8"/>
	<circle id="Ellipse_59-51" class="st0" cx="1684.3" cy="1416.8" r="0.8"/>
	<circle id="Ellipse_59-52" class="st0" cx="1692.6" cy="1416.8" r="0.8"/>
	<circle id="Ellipse_59-53" class="st0" cx="1700.8" cy="1416.8" r="0.8"/>
	<circle id="Ellipse_59-54" class="st0" cx="1709.1" cy="1416.8" r="0.8"/>
	<circle id="Ellipse_59-55" class="st0" cx="1717.3" cy="1416.8" r="0.8"/>
	<circle id="Ellipse_59-56" class="st0" cx="1634.8" cy="1425.1" r="0.8"/>
	<circle id="Ellipse_59-57" class="st0" cx="1643.1" cy="1425.1" r="0.8"/>
	<circle id="Ellipse_59-58" class="st0" cx="1651.3" cy="1425.1" r="0.8"/>
	<circle id="Ellipse_59-59" class="st0" cx="1659.6" cy="1425.1" r="0.8"/>
	<circle id="Ellipse_59-60" class="st0" cx="1667.8" cy="1425.1" r="0.8"/>
	<circle id="Ellipse_59-61" class="st0" cx="1676.1" cy="1425.1" r="0.8"/>
	<circle id="Ellipse_59-62" class="st0" cx="1684.3" cy="1425.1" r="0.8"/>
	<circle id="Ellipse_59-63" class="st0" cx="1692.6" cy="1425.1" r="0.8"/>
	<circle id="Ellipse_59-64" class="st0" cx="1700.8" cy="1425.1" r="0.8"/>
	<circle id="Ellipse_59-65" class="st0" cx="1709.1" cy="1425.1" r="0.8"/>
	<circle id="Ellipse_59-66" class="st0" cx="1717.3" cy="1425.1" r="0.8"/>
	<circle id="Ellipse_59-67" class="st0" cx="1634.8" cy="1433.3" r="0.8"/>
	<circle id="Ellipse_59-68" class="st0" cx="1643.1" cy="1433.3" r="0.8"/>
	<circle id="Ellipse_59-69" class="st0" cx="1651.3" cy="1433.3" r="0.8"/>
	<circle id="Ellipse_59-70" class="st0" cx="1659.6" cy="1433.3" r="0.8"/>
	<circle id="Ellipse_59-71" class="st0" cx="1667.8" cy="1433.3" r="0.8"/>
	<circle id="Ellipse_59-72" class="st0" cx="1676.1" cy="1433.3" r="0.8"/>
	<circle id="Ellipse_59-73" class="st0" cx="1684.3" cy="1433.3" r="0.8"/>
	<circle id="Ellipse_59-74" class="st0" cx="1692.6" cy="1433.3" r="0.8"/>
	<circle id="Ellipse_59-75" class="st0" cx="1700.8" cy="1433.3" r="0.8"/>
	<circle id="Ellipse_59-76" class="st0" cx="1709.1" cy="1433.3" r="0.8"/>
	<circle id="Ellipse_59-77" class="st0" cx="1717.3" cy="1433.3" r="0.8"/>
	<circle id="Ellipse_59-78" class="st0" cx="1634.8" cy="1441.6" r="0.8"/>
	<circle id="Ellipse_59-79" class="st0" cx="1643.1" cy="1441.6" r="0.8"/>
	<circle id="Ellipse_59-80" class="st0" cx="1651.3" cy="1441.6" r="0.8"/>
	<circle id="Ellipse_59-81" class="st0" cx="1659.6" cy="1441.6" r="0.8"/>
	<circle id="Ellipse_59-82" class="st0" cx="1667.8" cy="1441.6" r="0.8"/>
	<circle id="Ellipse_59-83" class="st0" cx="1676.1" cy="1441.6" r="0.8"/>
	<circle id="Ellipse_59-84" class="st0" cx="1684.3" cy="1441.6" r="0.8"/>
	<circle id="Ellipse_59-85" class="st0" cx="1692.6" cy="1441.6" r="0.8"/>
	<circle id="Ellipse_59-86" class="st0" cx="1700.8" cy="1441.6" r="0.8"/>
	<circle id="Ellipse_59-87" class="st0" cx="1709.1" cy="1441.6" r="0.8"/>
	<circle id="Ellipse_59-88" class="st0" cx="1717.3" cy="1441.6" r="0.8"/>
	<circle id="Ellipse_59-89" class="st0" cx="1634.8" cy="1449.8" r="0.8"/>
	<circle id="Ellipse_59-90" class="st0" cx="1643.1" cy="1449.8" r="0.8"/>
	<circle id="Ellipse_59-91" class="st0" cx="1651.3" cy="1449.8" r="0.8"/>
	<circle id="Ellipse_59-92" class="st0" cx="1659.6" cy="1449.8" r="0.8"/>
	<circle id="Ellipse_59-93" class="st0" cx="1667.8" cy="1449.8" r="0.8"/>
	<circle id="Ellipse_59-94" class="st0" cx="1676.1" cy="1449.8" r="0.8"/>
	<circle id="Ellipse_59-95" class="st0" cx="1684.3" cy="1449.8" r="0.8"/>
	<circle id="Ellipse_59-96" class="st0" cx="1692.6" cy="1449.8" r="0.8"/>
	<circle id="Ellipse_59-97" class="st0" cx="1700.8" cy="1449.8" r="0.8"/>
	<circle id="Ellipse_59-98" class="st0" cx="1709.1" cy="1449.8" r="0.8"/>
	<circle id="Ellipse_59-99" class="st0" cx="1717.3" cy="1449.8" r="0.8"/>
</g>
</svg>
