<?xml version="1.0" encoding="utf-8"?>
<!-- Generator: Adobe Illustrator 26.0.3, SVG Export Plug-In . SVG Version: 6.00 Build 0)  -->
<svg version="1.1" id="Calque_1" xmlns="http://www.w3.org/2000/svg" xmlns:xlink="http://www.w3.org/1999/xlink" x="0px" y="0px"
	 viewBox="0 0 1921.8 1177.7" style="enable-background:new 0 0 1921.8 1177.7;" xml:space="preserve">
<style type="text/css">
	.st0{fill:url(#SVGID_1_);}
	.st1{fill:url(#SVGID_00000034072112846790573770000007834904266067180936_);}
	
		.st2{opacity:3.000000e-02;clip-path:url(#SVGID_00000140717788883292740520000014651117732947100082_);fill:#FFFFFF;enable-background:new    ;}
	
		.st3{opacity:2.000000e-02;clip-path:url(#SVGID_00000140717788883292740520000014651117732947100082_);fill:#FFFFFF;enable-background:new    ;}
	.st4{fill:url(#SVGID_00000102525959666721295330000011069086981839612072_);}
</style>
<linearGradient id="SVGID_1_" gradientUnits="userSpaceOnUse" x1="1382.7046" y1="1491.4406" x2="684.5171" y2="232.111">
	<stop  offset="0" style="stop-color:#002E68"/>
	<stop  offset="1" style="stop-color:#004B87"/>
</linearGradient>
<path class="st0" d="M1967.8,484.1l-28.3,127.5h3.2V1181H0V611.6c0,0,0,0,0,0c177.3-53.2,1074.7-321.7,1513.5-434.2
	C2001.9,52.4,1967.8,484.1,1967.8,484.1z"/>
<linearGradient id="SVGID_00000001633897612044261800000018067197234018725514_" gradientUnits="userSpaceOnUse" x1="3.465046e-02" y1="611.6133" x2="1.846900e-02" y2="611.5842">
	<stop  offset="0" style="stop-color:#002E68"/>
	<stop  offset="1" style="stop-color:#004B87"/>
</linearGradient>
<path style="fill:url(#SVGID_00000001633897612044261800000018067197234018725514_);" d="M0,611.6C0,611.6,0,611.6,0,611.6L0,611.6
	L0,611.6z"/>
<g>
	<defs>
		<path id="SVGID_00000026851351082778632520000016925388351729415056_" d="M1920.8,361.4c0,0-60.7-428.8-510.1-200.4
			C961.4,389.4,0,930,0,930l0.6,341.7l1921.2-0.6L1920.8,361.4z"/>
	</defs>
	<clipPath id="SVGID_00000174562742170882424350000014080693685619061634_">
		<use xlink:href="#SVGID_00000026851351082778632520000016925388351729415056_"  style="overflow:visible;"/>
	</clipPath>
	
		<circle id="Ellipse_167" style="opacity:3.000000e-02;clip-path:url(#SVGID_00000174562742170882424350000014080693685619061634_);fill:#FFFFFF;enable-background:new    ;" cx="1799.5" cy="418.2" r="156.5"/>
	
		<circle id="Ellipse_168" style="opacity:3.000000e-02;clip-path:url(#SVGID_00000174562742170882424350000014080693685619061634_);fill:#FFFFFF;enable-background:new    ;" cx="1818.5" cy="595.2" r="156.5"/>
	
		<circle id="Ellipse_169" style="opacity:3.000000e-02;clip-path:url(#SVGID_00000174562742170882424350000014080693685619061634_);fill:#FFFFFF;enable-background:new    ;" cx="1986.5" cy="474.2" r="156.5"/>
	
		<circle id="Ellipse_167-2" style="opacity:2.000000e-02;clip-path:url(#SVGID_00000174562742170882424350000014080693685619061634_);fill:#FFFFFF;enable-background:new    ;" cx="112.5" cy="997.2" r="156.5"/>
	
		<circle id="Ellipse_168-2" style="opacity:2.000000e-02;clip-path:url(#SVGID_00000174562742170882424350000014080693685619061634_);fill:#FFFFFF;enable-background:new    ;" cx="131.5" cy="1174.2" r="156.5"/>
	
		<circle id="Ellipse_169-2" style="opacity:2.000000e-02;clip-path:url(#SVGID_00000174562742170882424350000014080693685619061634_);fill:#FFFFFF;enable-background:new    ;" cx="299.5" cy="1053.2" r="156.5"/>
</g>
<linearGradient id="SVGID_00000165197297236457323630000007973915477012371621_" gradientUnits="userSpaceOnUse" x1="3294.292" y1="2005.7708" x2="2235.6672" y2="96.3163">
	<stop  offset="0" style="stop-color:#002E68"/>
	<stop  offset="1" style="stop-color:#004B87"/>
</linearGradient>
<rect x="2505.9" y="672.8" style="fill:url(#SVGID_00000165197297236457323630000007973915477012371621_);" width="690.4" height="1067.3"/>
</svg>
