<?xml version="1.0" encoding="utf-8"?>
<!-- Generator: Adobe Illustrator 26.0.3, SVG Export Plug-In . SVG Version: 6.00 Build 0)  -->
<svg version="1.1" id="Calque_1" xmlns="http://www.w3.org/2000/svg" xmlns:xlink="http://www.w3.org/1999/xlink" x="0px" y="0px"
	 viewBox="0 0 324 72" style="enable-background:new 0 0 324 72;" xml:space="preserve">
<style type="text/css">
	.st0{fill:#F6AF13;}
</style>
<g>
	<g>
		<g>
			<path class="st0" d="M45.7,45.2c-0.1-0.5-0.4-0.8-0.7-1.2l0,0c-1.5-1.5-3-3-4.5-4.5l-1.2-1.2c-0.1-0.1-0.2-0.2-0.4-0.4
				s-0.4-0.1-0.6,0c-0.1,0.1-0.1,0.4,0,0.6l2.1,2.1c1.2,1.2,2.5,2.5,3.8,3.8c0.1,0.1,0.1,0.1,0.2,0.2c0.1,0.1,0.2,0.2,0.4,0.4
				c0.2,0.2,0.2,0.6,0.2,0.8c-0.1,0.2-0.4,0.5-0.6,0.6c-0.4,0.1-0.6,0-0.8-0.2c-1.8-1.9-3.8-3.8-5.6-5.6c-0.1-0.1-0.1-0.2-0.2-0.2
				c-0.1-0.1-0.4-0.1-0.5,0c-0.1,0.1-0.1,0.4,0,0.5l0.1,0.1l4.4,4.4c0.5,0.5,1,1,1.5,1.5c0.4,0.4,0.7,0.5,1.2,0.5c0.1,0,0.2,0,0.4,0
				c0.5-0.1,1-0.5,1.2-1c0-0.1,0-0.1,0.1-0.2v-0.1l0,0L45.7,45.2z"/>
			<path class="st0" d="M40.4,35.5c0.1-0.1,0.2-0.2,0.4-0.4l0.1-0.1c0,0,0.1,0,0.1,0.1c0.1,0.1,0.2,0.1,0.4,0.2
				c0.2,0.1,0.5,0,0.6-0.1l0.1,0.1l0,0c-0.4,0.4-0.4,0.8,0.1,1.2c0.2,0.2,0.5,0.4,0.6,0.6c0.4,0.4,0.8,0.2,1.2-0.1
				c0.5-0.6,1-1.1,1.6-1.7c0.4-0.4,0.4-0.8-0.1-1.2c-0.1-0.1-0.2-0.2-0.4-0.4l-0.2-0.2c-0.4-0.4-0.7-0.4-1.2-0.1l-0.1-0.1
				c0.2-0.4,0.2-0.6-0.1-1c-0.4-0.4-0.7-0.6-1.1-1c-0.4-0.4-0.7-0.6-1.1-1c-1-0.8-2.1-1.2-3.4-1.1c-0.5,0.1-1,0.2-1.5,0.6
				c-0.2,0.1-0.4,0.4-0.2,0.6c0.1,0.2,0.2,0.4,0.5,0.5l0.4,0.1c0.5,0.1,1.1,0.2,1.7,0.6c0.4,0.2,0.5,0.6,0.4,1.1c0,0.1,0,0.1,0,0.2
				v0.1l0,0v0.1c-1.5,1.6-2.8,3-4,4.5h-0.1c-0.2-0.1-0.5,0-0.7,0.2l-0.2-0.1l-0.1,0.1c-0.2,0.2-0.4,0.5-0.2,0.8l-0.4,0.2
				c-0.5,0.4-1.1,0.7-1.6,1.2c-0.4,0.4-0.6,0.7-1,1.1l-0.4,0.4c-0.4,0.4-0.7,0.7-1.1,1.2c-0.4,0.4-0.7,0.7-1.1,1.2
				c-0.5,0.5-0.6,1.1-0.5,1.7c0.1,0.7,0.6,1.1,1.3,1.3c0.1,0,0.4,0.1,0.5,0.1c0.5,0,0.8-0.2,1.2-0.6c0.4-0.4,0.7-0.8,1.1-1.2
				c0.1-0.1,0.2-0.4,0.5-0.5l0.2-0.2c0.4-0.5,0.8-1,1.2-1.3c0.7-0.7,1.1-1.6,1.6-2.3v-0.1l0,0c0.4,0.1,0.6,0,0.8-0.2l0.1-0.1
				l0.1-0.1c0.1-0.2,0.2-0.5,0.1-0.6c0-0.1,0-0.1,0-0.1L40.4,35.5z M34.2,39.5c0.1,0.1,0.4,0.2,0.5,0.4c0.1,0.1,0.2,0.2,0.4,0.4
				l-0.1,0.2c-0.4,0.7-0.8,1.5-1.3,2.1s-1.1,1.1-1.6,1.7s-1.1,1.1-1.6,1.7c-0.2,0.2-0.6,0.4-1,0.4c-0.4-0.1-0.6-0.2-0.7-0.6
				c-0.1-0.4-0.1-0.7,0.2-1.1c0.4-0.4,0.6-0.7,1-1.1c0.6-0.7,1.3-1.5,1.9-2.2C32.4,40.7,33.2,40.1,34.2,39.5z M39.4,33.7l0.8,0.8
				c-1.3,1.5-2.7,3-4,4.5l-0.8-0.8L39.4,33.7z M34.3,38.7L34.3,38.7c0.1-0.1,0.1-0.1,0.2-0.2c0.2,0.2,0.5,0.5,0.7,0.7
				c0.2,0.2,0.5,0.5,0.7,0.7l-0.2,0.2L34.3,38.7z M44.2,34.1c0.2,0.2,0.5,0.4,0.6,0.6c0.1,0.1,0,0.1,0,0.1c-0.5,0.6-1,1.1-1.6,1.7
				c0,0,0,0-0.1,0l0,0l0,0c0,0,0,0-0.1,0c-0.1-0.1-0.2-0.2-0.4-0.2c-0.1-0.1-0.2-0.2-0.4-0.2c0,0,0,0,0-0.1v-0.1
				c0.5-0.5,1-1.1,1.5-1.6l0,0C44.1,34.1,44.1,34.1,44.2,34.1z M43.2,34.1c-0.1,0.1-0.2,0.4-0.5,0.5l-0.1,0.2l-0.1-0.2
				c0.1-0.2,0.4-0.4,0.5-0.6l0.1-0.1L43.2,34.1z M37.1,30.3c0.2-0.1,0.5-0.2,0.7-0.2c1.1-0.1,1.9,0.1,2.7,0.8c0.5,0.5,1.1,1,1.6,1.5
				c0.2,0.2,0.5,0.4,0.7,0.6c-0.5,0.5-1,1.1-1.5,1.6L41,34.2c-0.5-0.5-1-0.8-1.5-1.2l0,0c0.2-0.7,0-1.3-0.6-1.8
				C38.4,30.5,37.7,30.4,37.1,30.3z"/>
			<path class="st0" d="M31.4,35.9c0.5-0.1,0.8,0,1.1,0.4c0.1,0.1,0.2,0.2,0.4,0.4l0.2,0.2c0.1,0.1,0.2,0.4,0.5,0.5
				c0.1,0.1,0.1,0.1,0.2,0.1l0,0c0.1,0,0.2,0,0.2-0.1c0.1-0.1,0.1-0.4,0-0.5c0,0,0,0-0.1-0.1l0,0c-0.4-0.4-0.7-0.7-1.1-1.1
				c-0.5-0.5-1.1-0.7-1.7-0.6c-1.3,0.2-2.4-0.6-2.8-1.8c0-0.1,0-0.2-0.1-0.5l0,0l0.4,0.2c0.4,0.2,0.7,0.6,1.1,0.8
				c0.5,0.4,1.2,0.4,1.6-0.1c0.2-0.2,0.5-0.6,0.7-0.8c0.4-0.5,0.4-1.2-0.2-1.6c-0.2-0.2-0.5-0.5-0.8-0.6l-0.6-0.5
				c0.5-0.1,0.8,0,1.3,0.1c1,0.4,1.6,1.3,1.6,2.4c0,0.6,0.2,1.2,0.6,1.6c0.4,0.4,0.6,0.6,1,1c0.1,0.1,0.4,0.4,0.5,0.5l0,0l0.1,0.1
				c0.1,0.1,0.4,0.1,0.5,0c0.1-0.1,0.1-0.4,0-0.5l-0.1-0.1c-0.1-0.1-0.2-0.2-0.4-0.4c-0.4-0.4-0.6-0.6-1-1c-0.4-0.4-0.5-0.7-0.5-1.2
				c0-1.1-0.5-1.9-1.2-2.5c-0.8-0.6-1.8-0.8-2.8-0.6c-0.2,0.1-0.5,0.2-0.5,0.5c0,0.2,0,0.5,0.2,0.6c0.5,0.4,1,0.8,1.6,1.2
				c0.2,0.2,0.2,0.4,0.1,0.6c-0.2,0.2-0.4,0.5-0.6,0.7c-0.2,0.2-0.4,0.2-0.7,0.1l-1.6-1.2c-0.2-0.1-0.4-0.2-0.6-0.1
				c-0.2,0.1-0.4,0.2-0.4,0.5v0.1c0,0.2,0,0.5,0,0.7C28.1,35,29.6,36.1,31.4,35.9z"/>
			<path class="st0" d="M37.6,39c-0.1,0.1-0.1,0.4,0,0.5c0,0.1,0.1,0.1,0.1,0.1c1.6,1.6,3.1,3.1,4.7,4.7l0,0l0.1,0.1
				c0.1,0,0.1,0,0.2,0h0.1c0.1,0,0.1-0.1,0.1-0.1s0,0,0-0.1v-0.1V44c0,0,0-0.1-0.1-0.1c0-0.1-0.1-0.1-0.1-0.1
				c-1.1-1.1-2.1-2.1-3.1-3.1L38.1,39l0,0c0,0,0,0-0.1-0.1C37.9,38.8,37.7,38.9,37.6,39z"/>
			<path class="st0" d="M33.8,34.8l-0.1-0.1l0,0c0,0,0,0-0.1,0c-0.1,0-0.1,0.1-0.1,0.1c-0.1,0.1-0.1,0.4,0.1,0.5l1.2,1.2
				c0.1,0.1,0.2,0.1,0.2,0.1c0.1,0,0.1,0,0.2-0.1s0.1-0.1,0.1-0.2c0-0.1,0-0.2-0.1-0.4c-0.4-0.4-0.8-0.8-1.2-1.2
				C33.9,34.8,33.8,34.8,33.8,34.8z"/>
		</g>
		<g>
			<path class="st0" d="M48.7,31.5v0.1c0,0.1,0.1,0.2,0.2,0.4c0.2,0.1,0.5,0.1,0.6,0c0.1-0.1,0.1-0.1,0.2-0.2
				c0.8-0.8,1.9-1.2,3.1-1.2c1,0.1,1.8,0.5,2.5,1.2c0.1,0.1,0.2,0.2,0.4,0.4c0.2,0.1,0.5,0.2,0.6,0.1c0.2-0.1,0.2-0.4,0.2-0.6
				c0-0.1-0.1-0.2-0.1-0.2c-0.5-0.5-1-0.8-1.5-1.2c-0.6-0.4-1.2-0.5-1.9-0.6c-1.1-0.1-2.1,0.1-3,0.6c-0.5,0.2-0.8,0.6-1.2,1
				C48.9,31.4,48.9,31.5,48.7,31.5z"/>
			<path class="st0" d="M50.3,33.5c0.2,0.2,0.6,0.2,0.7,0c0.1-0.1,0.2-0.2,0.4-0.4c0.4-0.4,0.8-0.6,1.5-0.5c0.5,0,0.8,0.2,1.2,0.6
				c0.1,0.1,0.2,0.2,0.2,0.2c0.4,0.4,0.8,0.1,1-0.2c0-0.2,0-0.4-0.1-0.6c-0.4-0.4-0.6-0.6-1-0.8c-0.5-0.2-1-0.4-1.5-0.4
				c-0.6,0-1.1,0.1-1.6,0.4c-0.4,0.2-0.6,0.5-1,0.8C50.1,33,50.2,33.3,50.3,33.5z"/>
			<path class="st0" d="M51.5,35.1c0.1,0.1,0.2,0.1,0.4,0s0.1-0.1,0.2-0.2c0.2-0.2,0.5-0.4,0.8-0.4c0.2,0,0.5,0.1,0.6,0.4
				c0,0.1,0.1,0.1,0.1,0.2c0.2,0.2,0.5,0.1,0.5-0.2c0-0.1,0-0.2-0.1-0.4c-0.1-0.2-0.4-0.5-0.6-0.6c-0.2-0.1-0.5-0.2-0.8-0.2
				c-0.2,0-0.6,0.1-0.8,0.2c-0.2,0.1-0.4,0.4-0.5,0.5C51.4,34.8,51.4,35,51.5,35.1z"/>
		</g>
		<path class="st0" d="M78,33.7L46.1,2c-2.2-2.2-5.7-2.2-7.9,0L7.1,32.8c-1,1-1.5,2.2-1.5,3.5c0,1.2,0.5,2.5,1.5,3.5
			c1.8,1.8,4.8,1.9,6.8,0.1v28.2c0,1.9,1.6,3.5,3.5,3.5h50c1.9,0,3.5-1.6,3.5-3.5V40.4l0.2,0.2c1.9,1.9,5,1.9,6.9,0
			C80,38.7,80,35.6,78,33.7z M61,61.8c0,0.4-0.4,0.7-0.7,0.7H24.4c-0.4,0-0.7-0.4-0.7-0.7V30.3l18.5-18.5l18.9,18.9v31.1H61z"/>
		<g>
			<path class="st0" d="M35.9,53.2v0.6c0.1,0.5,0.5,0.8,0.8,1.2c0.4,0.4,0.7,0.7,1.1,1.1c0.4,0.4,0.8,0.6,1.3,0.7
				c0.1,0,0.4,0.1,0.5,0.1h1c0.2,0,0.4-0.1,0.6-0.1c1.5-0.2,2.8-0.8,4.1-1.7c3-1.8,5.6-4.1,7.8-6.8c1.2-1.5,2.2-3,2.9-4.7
				c0.5-1.1,0.8-2.3,0.8-3.6c0-0.8-0.2-1.6-0.8-2.1c-0.5-0.5-1-1-1.3-1.3c-0.8-0.8-2.1-0.7-2.7,0.4c-1,1.7-1.9,3.3-2.9,5
				c-0.5,0.7-0.4,1.5,0.2,2.2c0.2,0.2,0.6,0.6,0.8,0.8c0.4,0.4,0.4,0.7,0,1.1c-1.3,1.6-2.8,3-4.4,4.4c-0.4,0.4-0.7,0.2-1.1,0
				c-0.2-0.2-0.6-0.6-0.8-0.8c-0.6-0.6-1.3-0.7-2.1-0.2c-1.6,0.8-3,1.8-4.6,2.7c-0.1,0.1-0.4,0.1-0.5,0.2
				C36.3,52.4,36,52.7,35.9,53.2L35.9,53.2z M53.8,37c-1.3,2.3-2.5,4.5-3.9,6.8c-0.6-0.5-0.7-1-0.2-1.6c1-1.6,1.8-3.1,2.8-4.8
				c0-0.1,0.1-0.2,0.2-0.2C52.8,36.7,53.5,36.7,53.8,37z M37.2,54.5c2.3-1.3,4.6-2.7,6.8-3.9l0.1,0.1c0.7,0.7,1.5,0.7,2.2,0.1
				c0.2-0.1,0.5-0.4,0.6-0.5c1.3-1.2,2.5-2.4,3.6-3.8c0.6-0.7,0.5-1.5-0.1-2.1c-0.1-0.1-0.1-0.1-0.2-0.1c1.3-2.3,2.7-4.6,4-6.9
				c0.5,0.5,0.8,1,1.3,1.5c0.1,0.1,0.2,0.4,0.2,0.6c0.2,0.8,0.1,1.7-0.1,2.4c-0.2,1.2-0.8,2.2-1.3,3.3c-1.8,3.1-4.2,5.7-7,7.9
				c-1.6,1.2-3.1,2.2-5,2.8c-0.8,0.2-1.6,0.5-2.4,0.5c-0.7,0-1.2-0.2-1.7-0.7c-0.2-0.2-0.6-0.6-0.8-0.8
				C37.3,54.7,37.3,54.7,37.2,54.5z M37.1,52.6c1.7-1,3.3-1.9,5-2.8c0.6-0.4,1.1-0.2,1.5,0.4c-2.3,1.3-4.5,2.5-6.8,3.9
				C36.4,53.6,36.6,53,37.1,52.6z"/>
		</g>
	</g>
	<g>
		<path class="st0" d="M116,28.8c-0.6-1-1.6-1.8-2.7-2.4c-1.1-0.6-2.3-0.8-3.6-0.8H91.1c-0.2,0-0.4,0.1-0.4,0.4v3.5
			c0,0.2,0.1,0.4,0.4,0.4h18.1c0.7,0,1.3,0.2,1.8,0.6c0.5,0.4,0.7,1,0.7,1.7c0,0.7-0.2,1.2-0.7,1.7c-0.5,0.4-1.1,0.6-1.8,0.6H96l0,0
			h-4.8c-0.2,0-0.4,0.1-0.4,0.4v9.4c0,0.2,0.1,0.4,0.4,0.4h4.5c0.2,0,0.4-0.1,0.4-0.4V39c0-0.2,0.1-0.4,0.4-0.4h13.3
			c1.3,0,2.5-0.2,3.6-0.8c1.1-0.6,1.9-1.3,2.7-2.4c0.6-1,1-2.2,1-3.3C116.9,30.9,116.6,29.8,116,28.8z"/>
		<path class="st0" d="M139.6,38.2c-0.2-0.2-0.1-0.6,0.2-0.6c1.3-0.2,2.5-0.8,3.5-1.8c1.1-1.2,1.7-2.5,1.7-4.1
			c0-1.7-0.6-3.1-1.9-4.4c-1.3-1.2-2.9-1.8-4.7-1.8h-18.5c-0.2,0-0.4,0.1-0.4,0.4v3.5c0,0.2,0.1,0.4,0.4,0.4h17.9
			c0.6,0,1.1,0.1,1.5,0.5c0.4,0.4,0.6,0.7,0.6,1.3c0,0.5-0.2,1-0.6,1.3c-0.4,0.4-0.8,0.5-1.5,0.5h-13.1h-4.8c-0.2,0-0.4,0.1-0.4,0.4
			v10.4c0,0.2,0.1,0.4,0.4,0.4h4.5c0.2,0,0.4-0.1,0.4-0.4v-6.2c0-0.2,0.1-0.4,0.4-0.4h8.1c0.1,0,0.2,0,0.4,0.1l5.6,6.7
			c0.1,0.1,0.2,0.1,0.4,0.1h5c0.4,0,0.5-0.4,0.2-0.6L139.6,38.2z"/>
		<path class="st0" d="M173.4,27.2c-1.2-1.1-2.7-1.7-4.4-1.7h-15c-1.7,0-3.1,0.6-4.4,1.7c-1.2,1.1-1.8,2.4-1.8,4v8
			c0,1.6,0.6,2.9,1.8,4c1.2,1.1,2.7,1.6,4.4,1.6h15c1.7,0,3.1-0.6,4.4-1.6c1.2-1.1,1.8-2.4,1.8-4v-8
			C175.2,29.6,174.6,28.2,173.4,27.2z M170,38.2c0,0.6-0.2,1.1-0.7,1.6c-0.5,0.4-1.1,0.6-1.7,0.6h-11.9c-0.7,0-1.3-0.2-1.7-0.6
			c-0.5-0.5-0.7-1-0.7-1.6V32c0-0.6,0.2-1.2,0.7-1.6c0.5-0.5,1.1-0.7,1.7-0.6h11.9c0.7,0,1.3,0.2,1.7,0.6c0.5,0.4,0.7,1,0.7,1.6
			V38.2z"/>
		<path class="st0" d="M183,40V25.9c0-0.2-0.1-0.4-0.4-0.4h-4.5c-0.2,0-0.4,0.1-0.4,0.4v18.4c0,0.2,0.1,0.4,0.4,0.4h21.9
			c0.2,0,0.4-0.1,0.4-0.4v-3.5c0-0.2-0.1-0.4-0.4-0.4h-16.7C183.1,40.5,183,40.2,183,40z"/>
		<path class="st0" d="M203,25.9v18.4c0,0.2,0.1,0.4,0.4,0.4h4.5c0.2,0,0.4-0.1,0.4-0.4V25.9c0-0.2-0.1-0.4-0.4-0.4h-4.5
			C203.1,25.6,203,25.7,203,25.9z"/>
		<path class="st0" d="M232.5,25.9v12.2c0,0.4-0.4,0.5-0.6,0.4L216,25.7c-0.1,0-0.1-0.1-0.2-0.1h-4.7c-0.2,0-0.4,0.1-0.4,0.4v18.4
			c0,0.2,0.1,0.4,0.4,0.4h4.5c0.2,0,0.4-0.1,0.4-0.4V32.1c0-0.4,0.4-0.5,0.6-0.4l15.9,12.8c0.1,0,0.1,0.1,0.2,0.1h4.7
			c0.2,0,0.4-0.1,0.4-0.4V25.9c0-0.2-0.1-0.4-0.4-0.4h-4.5C232.8,25.6,232.5,25.7,232.5,25.9z"/>
		<path class="st0" d="M252.9,34.2l13-8c0.4-0.2,0.2-0.7-0.2-0.7h-7.1c-0.1,0-0.1,0-0.2,0.1l-12.1,7.8c-0.2,0.1-0.6,0-0.6-0.4v-7.1
			c0-0.2-0.1-0.4-0.4-0.4h-4.5c-0.2,0-0.4,0.1-0.4,0.4v18.4c0,0.2,0.1,0.4,0.4,0.4h4.5c0.2,0,0.4-0.1,0.4-0.4V36
			c0-0.4,0.4-0.5,0.6-0.4l13.1,8.8c0.1,0,0.1,0.1,0.2,0.1h7.1c0.4,0,0.6-0.5,0.2-0.7l-14.1-9.1C252.6,34.7,252.6,34.3,252.9,34.2z"
			/>
		<rect x="90.9" y="48.2" class="st0" width="176.5" height="0.8"/>
		<g>
			<g>
				<path class="st0" d="M91.5,57.1V52h1.2v5c0,0.5,0.1,1,0.5,1.2c0.4,0.2,0.7,0.4,1.1,0.4c0.5,0,0.8-0.1,1.1-0.4
					c0.4-0.2,0.5-0.7,0.5-1.2v-5h1.2v5.1c0,0.8-0.2,1.5-0.8,1.9c-0.5,0.5-1.2,0.7-1.9,0.7c-0.7,0-1.5-0.2-1.9-0.7
					C91.7,58.5,91.5,57.9,91.5,57.1z"/>
				<path class="st0" d="M102.8,59.7V52h1.1l3.5,5.5l0,0V52h1.2v7.8h-1.1l-3.5-5.5l0,0v5.5H102.8z"/>
				<path class="st0" d="M121.5,59.7V52h2.8c0.2,0,0.6,0,0.8,0.1s0.6,0.2,0.8,0.5c0.2,0.1,0.5,0.5,0.6,0.7c0.1,0.4,0.2,0.7,0.2,1.1
					c0,0.6-0.2,1.1-0.6,1.6c-0.4,0.5-1,0.7-1.8,0.7h-1.8v3C122.6,59.7,121.5,59.7,121.5,59.7z M122.8,53.1v2.5h1.7
					c0.5,0,0.7-0.1,1-0.4c0.2-0.2,0.4-0.6,0.4-0.8c0-0.5-0.1-0.8-0.5-1.1c-0.2-0.1-0.5-0.2-0.8-0.2
					C124.5,53.1,122.8,53.1,122.8,53.1z"/>
				<path class="st0" d="M132.3,59.7V52h3c0.6,0,1.2,0.1,1.6,0.5c0.2,0.2,0.4,0.4,0.6,0.7c0.1,0.2,0.2,0.6,0.2,1
					c0,0.5-0.1,1-0.4,1.3c-0.2,0.4-0.6,0.6-1.1,0.8l1.8,3.4h-1.5l-1.6-3.3h-1.5v3.3C133.7,59.7,132.3,59.7,132.3,59.7z M133.5,53.1
					v2.3h1.8c0.5,0,0.7-0.1,1-0.4s0.4-0.5,0.4-0.8s-0.1-0.7-0.4-0.8c-0.2-0.1-0.5-0.2-0.8-0.2H133.5z"/>
				<path class="st0" d="M143.1,55.9c0-1,0-1.6,0.1-1.8c0-0.2,0.1-0.5,0.2-0.7c0.1-0.4,0.5-0.6,0.8-1c0.4-0.2,1-0.5,1.6-0.5
					c0.6,0,1.1,0.1,1.6,0.5c0.4,0.2,0.7,0.6,0.8,1c0.1,0.2,0.2,0.5,0.2,0.7c0,0.2,0.1,0.8,0.1,1.8s0,1.6-0.1,1.8
					c0,0.2-0.1,0.5-0.2,0.7c-0.2,0.4-0.5,0.6-0.8,1c-0.4,0.2-1,0.5-1.6,0.5c-0.6,0-1.1-0.1-1.6-0.5c-0.4-0.2-0.7-0.6-0.8-1
					c-0.1-0.2-0.2-0.5-0.2-0.7C143.1,57.4,143.1,56.8,143.1,55.9z M144.3,55.9c0,0.8,0,1.3,0.1,1.6c0,0.2,0.1,0.5,0.4,0.6
					c0.1,0.1,0.2,0.2,0.5,0.4c0.2,0.1,0.5,0.1,0.7,0.1c0.2,0,0.5,0,0.7-0.1c0.2-0.1,0.4-0.2,0.5-0.4c0.1-0.2,0.2-0.4,0.4-0.6
					c0-0.2,0.1-0.7,0.1-1.6s0-1.3-0.1-1.6c0-0.2-0.1-0.5-0.4-0.6c-0.1-0.1-0.2-0.2-0.5-0.4s-0.5-0.1-0.7-0.1c-0.2,0-0.5,0-0.7,0.1
					c-0.2,0.1-0.4,0.2-0.5,0.4c-0.1,0.2-0.2,0.4-0.4,0.6C144.3,54.5,144.3,55,144.3,55.9z"/>
				<path class="st0" d="M161.3,59.7V52h5v1.1h-3.8v2.2h3.3v1.1h-3.3v2.3h3.8v1.1C166.2,59.7,161.3,59.7,161.3,59.7z"/>
				<path class="st0" d="M171.7,59.7V52h1.1l3.5,5.5l0,0V52h1.2v7.8h-1.1l-3.5-5.5l0,0v5.5H171.7z"/>
				<path class="st0" d="M190.4,57.1V52h1.2v5c0,0.5,0.1,1,0.5,1.2c0.4,0.2,0.7,0.4,1.1,0.4c0.5,0,0.8-0.1,1.1-0.4
					c0.4-0.2,0.5-0.7,0.5-1.2v-5h1.2v5.1c0,0.8-0.2,1.5-0.8,1.9c-0.5,0.5-1.2,0.7-1.9,0.7s-1.5-0.2-1.9-0.7
					C190.6,58.5,190.4,57.9,190.4,57.1z"/>
				<path class="st0" d="M201.7,59.7V52h1.1l3.5,5.5l0,0V52h1.2v7.8h-1.1l-3.5-5.5l0,0v5.5H201.7z"/>
				<path class="st0" d="M224.5,57.6h1.2c-0.1,0.7-0.5,1.3-1,1.7c-0.5,0.4-1.1,0.6-1.7,0.6c-0.6,0-1.1-0.1-1.6-0.5
					c-0.4-0.2-0.7-0.6-0.8-1c-0.1-0.2-0.2-0.5-0.2-0.7s-0.1-0.8-0.1-1.8s0-1.6,0.1-1.8c0-0.2,0.1-0.5,0.2-0.7c0.1-0.4,0.5-0.6,0.8-1
					c0.4-0.2,1-0.5,1.6-0.5c0.7,0,1.3,0.2,1.8,0.7c0.5,0.5,0.7,1,0.8,1.6h-1.2c-0.1-0.2-0.2-0.6-0.5-0.7c-0.2-0.2-0.6-0.4-1-0.4
					c-0.2,0-0.5,0-0.7,0.1s-0.4,0.2-0.5,0.4c-0.1,0.2-0.2,0.4-0.4,0.6c0,0.2-0.1,0.7-0.1,1.6s0,1.3,0.1,1.6c0,0.2,0.1,0.5,0.4,0.6
					c0.1,0.1,0.2,0.2,0.5,0.4c0.2,0.1,0.5,0.1,0.7,0.1C223.7,58.7,224.2,58.3,224.5,57.6z"/>
				<path class="st0" d="M230.9,59.7V52h1.2v6.7h3.8v1.1H230.9z"/>
				<path class="st0" d="M241.4,59.7V52h1.2v7.8H241.4z"/>
				<path class="st0" d="M252.5,57.6h1.2c-0.1,0.7-0.5,1.3-1,1.7c-0.5,0.4-1.1,0.6-1.7,0.6c-0.6,0-1.1-0.1-1.6-0.5
					c-0.4-0.2-0.7-0.6-0.8-1c-0.1-0.2-0.2-0.5-0.2-0.7c0-0.2-0.1-0.8-0.1-1.8s0-1.6,0.1-1.8c0-0.2,0.1-0.5,0.2-0.7
					c0.1-0.4,0.5-0.6,0.8-1c0.4-0.2,1-0.5,1.6-0.5c0.7,0,1.3,0.2,1.8,0.7c0.5,0.5,0.7,1,0.8,1.6h-1.2c-0.1-0.2-0.2-0.6-0.5-0.7
					s-0.6-0.4-1-0.4c-0.2,0-0.5,0-0.7,0.1c-0.2,0.1-0.4,0.2-0.5,0.4c-0.1,0.2-0.2,0.4-0.4,0.6s-0.1,0.7-0.1,1.6s0,1.3,0.1,1.6
					c0,0.2,0.1,0.5,0.4,0.6c0.1,0.1,0.2,0.2,0.5,0.4c0.2,0.1,0.5,0.1,0.7,0.1C251.7,58.7,252.1,58.3,252.5,57.6z"/>
				<path class="st0" d="M258.9,59.7V52h1.2v4l0,0l3.1-4h1.5l-2.4,3l2.8,4.7h-1.3l-2.1-3.8l-1.3,1.5v2.3
					C260.4,59.7,258.9,59.7,258.9,59.7z"/>
			</g>
		</g>
	</g>
</g>
</svg>
